<?xml version='1.0' encoding='UTF-8' standalone='no'?>
<svg xmlns="http://www.w3.org/2000/svg" height="42.5mm"  id="svg2" gorn="0" viewBox="0 0 150.5906 150.5906" width="42.5mm" version="1.2">
    <desc >
        <referenceFile >nokAzul.svg</referenceFile>
    </desc>
    <metadata  id="metadata66">
        <rdf:RDF xmlns:rdf="http://www.w3.org/1999/02/22-rdf-syntax-ns#">
            <cc:Work xmlns:cc="http://creativecommons.org/ns#" rdf:about="" xmlns:rdf="http://www.w3.org/1999/02/22-rdf-syntax-ns#">
                <dc:format xmlns:dc="http://purl.org/dc/elements/1.1/">image/svg+xml</dc:format>
                <dc:type rdf:resource="http://purl.org/dc/dcmitype/StillImage" xmlns:dc="http://purl.org/dc/elements/1.1/" xmlns:rdf="http://www.w3.org/1999/02/22-rdf-syntax-ns#"/>
                <dc:title xmlns:dc="http://purl.org/dc/elements/1.1/"/>
            </cc:Work>
        </rdf:RDF>
    </metadata>
    <defs  id="defs64">
        <defs  id="defs9"/>
    </defs>
    <path  id="rect4228" fill="#0000ff" d="M 0 0 L 0 150.58984 L 150.58984 150.58984 L 150.58984 0 L 0 0 z M 5.5429688 1.9082031 A 3.1383587 3.1383587 0 0 1 8.6816406 5.046875 A 3.1383587 3.1383587 0 0 1 5.5429688 8.1855469 A 3.1383587 3.1383587 0 0 1 2.4042969 5.046875 A 3.1383587 3.1383587 0 0 1 5.5429688 1.9082031 z M 145.54297 1.9082031 A 3.1383587 3.1383587 0 0 1 148.68164 5.046875 A 3.1383587 3.1383587 0 0 1 145.54297 8.1855469 A 3.1383587 3.1383587 0 0 1 142.4043 5.046875 A 3.1383587 3.1383587 0 0 1 145.54297 1.9082031 z M 5.5429688 141.9082 A 3.1383587 3.1383587 0 0 1 8.6816406 145.04688 A 3.1383587 3.1383587 0 0 1 5.5429688 148.18555 A 3.1383587 3.1383587 0 0 1 2.4042969 145.04688 A 3.1383587 3.1383587 0 0 1 5.5429688 141.9082 z M 145.54297 141.9082 A 3.1383587 3.1383587 0 0 1 148.68164 145.04688 A 3.1383587 3.1383587 0 0 1 145.54297 148.18555 A 3.1383587 3.1383587 0 0 1 142.4043 145.04688 A 3.1383587 3.1383587 0 0 1 145.54297 141.9082 z " stroke="none" fill-opacity="1" stroke-opacity="1" gorn="0.3" style="opacity:1;fill-rule:evenodd;stroke-linecap:butt;stroke-linejoin:round;stroke-miterlimit:4;stroke-dasharray:none;stroke-dashoffset:0;" stroke-width="1.10000002"/>
    <g  transform="matrix(0,-1,1,0,0,0)">
        <g >
            <rect height="138.18904"  id="rect4230" fill="#b3b3b3" stroke="#6d6057" fill-opacity="1" x="-133.75989" y="6.2007828" stroke-opacity="1" gorn="0.4.0.0" style="opacity:1;fill-rule:evenodd;stroke-linecap:butt;stroke-linejoin:round;stroke-miterlimit:4;stroke-dasharray:none;stroke-dashoffset:0;" width="116.92918" stroke-width="1.10000002"/>
        </g>
    </g>
    <rect height="92.126022"  id="rect4232" fill="#505948" stroke="#000000" fill-opacity="1" x="11.515755" y="37.276493" stroke-opacity="1" gorn="0.5" ry="8.326272" style="opacity:1;fill-rule:evenodd;stroke-linecap:butt;stroke-linejoin:round;stroke-miterlimit:4;stroke-dasharray:none;stroke-dashoffset:0;" width="127.5591" stroke-width="1.10000002"/>
    <g  transform="translate(0,-0.41766903)">
        <g >
            <g  id="g13460" gorn="0.6.0.0">
                <g  transform="translate(-9.5778542,0)">
                    <g >
                        <g  id="g13171" gorn="0.6.0.0.0.0.0">
                            <g  transform="matrix(1.25,0,0,-0.55780522,93.157371,148.95361)">
                                <g >
                                    <polygon  id="_x30_.1.3.0.0.0.0.5-2-2-9" points="0.612,1.413 0.612,5.347 0.612,8.687 0.612,12.619 2.121,14.131 6.054,14.131 7.566,12.619 7.566,8.687 7.566,5.347 7.566,1.413 6.054,-0.098 2.121,-0.098 " gorn="0.6.0.0.0.0.0.0.0.0" style="fill:#404040"/>
                                </g>
                            </g>
                            <g  transform="matrix(0,1.25,-1.25,0,199.81601,-49.004418)">
                                <g >
                                    <g  id="g22147" gorn="0.6.0.0.0.0.0.1.0.0">
                                        <g  transform="matrix(0,-1,-1,0,0,0)">
                                            <g >
                                                <rect height="2.2980003"  id="_x30_.1.3.0.0.0.0.10-0-6-0" x="-82.388908" y="-156.41167" gorn="0.6.0.0.0.0.0.1.0.0.0.0.0" width="2.2980003" style="fill:#8d8c8c"/>
                                            </g>
                                        </g>
                                        <g  transform="matrix(0,-1,-1,0,0,0)">
                                            <g >
                                                <rect height="1.1820002"  id="connector0" x="-81.830948" y="-155.85367" gorn="0.6.0.0.0.0.0.1.0.0.1.0.0" width="1.1830001" style="fill:#8c8663"/>
                                            </g>
                                        </g>
                                        <g  transform="matrix(0,-1,-1,0,158.72267,99.858915)">
                                            <g >
                                                <polygon  id="_x30_.1.3.0.0.0.0.18-1-9-4" gorn="0.6.0.0.0.0.0.1.0.0.2.0.0" points="19.209,2.869 19.209,4.05 19.769,4.608 19.769,2.311 " style="fill:#b8af82"/>
                                            </g>
                                        </g>
                                        <g  transform="matrix(0,-1,-1,0,158.72267,99.858915)">
                                            <g >
                                                <polygon  id="_x30_.1.3.0.0.0.0.19-5-0-1" gorn="0.6.0.0.0.0.0.1.0.0.3.0.0" points="19.209,4.05 19.769,4.608 17.47,4.608 18.028,4.05 " style="fill:#80795b"/>
                                            </g>
                                        </g>
                                        <g  transform="matrix(0,-1,-1,0,158.72267,99.858915)">
                                            <g >
                                                <polygon  id="_x30_.1.3.0.0.0.0.20-8-8-4" gorn="0.6.0.0.0.0.0.1.0.0.4.0.0" points="18.028,4.05 17.47,4.608 17.47,2.311 18.028,2.869 " style="fill:#5e5b43"/>
                                            </g>
                                        </g>
                                        <g  transform="matrix(0,-1,-1,0,158.72267,99.858915)">
                                            <g >
                                                <polygon  id="_x30_.1.3.0.0.0.0.21-9-4-7" gorn="0.6.0.0.0.0.0.1.0.0.5.0.0" points="19.209,2.869 18.028,2.869 17.47,2.311 19.769,2.311 " style="fill:#9a916c"/>
                                            </g>
                                        </g>
                                    </g>
                                </g>
                            </g>
                            <g  transform="matrix(1.25,0,0,-0.55780522,84.268219,148.95361)">
                                <g >
                                    <polygon  id="_x30_.1.3.0.0.0.0.5-4-3-6-2" points="0.612,12.619 2.121,14.131 6.054,14.131 7.566,12.619 7.566,8.687 7.566,5.347 7.566,1.413 6.054,-0.098 2.121,-0.098 0.612,1.413 0.612,5.347 0.612,8.687 " gorn="0.6.0.0.0.0.0.2.0.0" style="fill:#404040"/>
                                </g>
                            </g>
                            <g  transform="matrix(0,1.25,-1.25,0,199.81601,-49.004418)">
                                <g >
                                    <g  id="g22139" gorn="0.6.0.0.0.0.0.3.0.0">
                                        <g  transform="matrix(0,-1,-1,0,0,0)">
                                            <g >
                                                <rect height="2.2980003"  id="_x30_.1.3.0.0.0.0.10-5-03-4-5" x="-89.500214" y="-156.41167" gorn="0.6.0.0.0.0.0.3.0.0.0.0.0" width="2.2980003" style="fill:#8d8c8c"/>
                                            </g>
                                        </g>
                                        <g  transform="matrix(0,-1,-1,0,0,0)">
                                            <g >
                                                <rect height="1.1820002"  id="connector6" x="-88.942253" y="-155.85367" gorn="0.6.0.0.0.0.0.3.0.0.1.0.0" width="1.1830001" style="fill:#8c8663"/>
                                            </g>
                                        </g>
                                        <g  transform="matrix(0,-1,-1,0,158.72267,106.97024)">
                                            <g >
                                                <polygon  id="_x30_.1.3.0.0.0.0.18-4-3-0-8" gorn="0.6.0.0.0.0.0.3.0.0.2.0.0" points="19.769,2.311 19.209,2.869 19.209,4.05 19.769,4.608 " style="fill:#b8af82"/>
                                            </g>
                                        </g>
                                        <g  transform="matrix(0,-1,-1,0,158.72267,106.97024)">
                                            <g >
                                                <polygon  id="_x30_.1.3.0.0.0.0.19-8-4-9-1" gorn="0.6.0.0.0.0.0.3.0.0.3.0.0" points="18.028,4.05 19.209,4.05 19.769,4.608 17.47,4.608 " style="fill:#80795b"/>
                                            </g>
                                        </g>
                                        <g  transform="matrix(0,-1,-1,0,158.72267,106.97024)">
                                            <g >
                                                <polygon  id="_x30_.1.3.0.0.0.0.20-5-28-5-3" gorn="0.6.0.0.0.0.0.3.0.0.4.0.0" points="18.028,2.869 18.028,4.05 17.47,4.608 17.47,2.311 " style="fill:#5e5b43"/>
                                            </g>
                                        </g>
                                        <g  transform="matrix(0,-1,-1,0,158.72267,106.97024)">
                                            <g >
                                                <polygon  id="_x30_.1.3.0.0.0.0.21-1-4-4-4" gorn="0.6.0.0.0.0.0.3.0.0.5.0.0" points="19.769,2.311 19.209,2.869 18.028,2.869 17.47,2.311 " style="fill:#9a916c"/>
                                            </g>
                                        </g>
                                    </g>
                                </g>
                            </g>
                            <g  transform="matrix(1.25,0,0,-0.55780522,75.379066,148.95361)">
                                <g >
                                    <polygon  id="_x30_.1.3.0.0.0.0.5-7-0-3-0" points="7.566,1.413 6.054,-0.098 2.121,-0.098 0.612,1.413 0.612,5.347 0.612,8.687 0.612,12.619 2.121,14.131 6.054,14.131 7.566,12.619 7.566,8.687 7.566,5.347 " gorn="0.6.0.0.0.0.0.4.0.0" style="fill:#404040"/>
                                </g>
                            </g>
                            <g  transform="matrix(0,1.25,-1.25,0,199.81601,-49.004418)">
                                <g >
                                    <g  id="g22131" gorn="0.6.0.0.0.0.0.5.0.0">
                                        <g  transform="matrix(0,-1,-1,0,0,0)">
                                            <g >
                                                <rect height="2.2980003"  id="_x30_.1.3.0.0.0.0.10-7-695-5-3" x="-96.611542" y="-156.41167" gorn="0.6.0.0.0.0.0.5.0.0.0.0.0" width="2.2980003" style="fill:#8d8c8c"/>
                                            </g>
                                        </g>
                                        <g  transform="matrix(0,-1,-1,0,0,0)">
                                            <g >
                                                <rect height="1.1820002"  id="connector5" x="-96.053581" y="-155.85367" gorn="0.6.0.0.0.0.0.5.0.0.1.0.0" width="1.1830001" style="fill:#8c8663"/>
                                            </g>
                                        </g>
                                        <g  transform="matrix(0,-1,-1,0,158.72267,114.08156)">
                                            <g >
                                                <polygon  id="_x30_.1.3.0.0.0.0.18-6-02-5-0" gorn="0.6.0.0.0.0.0.5.0.0.2.0.0" points="19.209,4.05 19.769,4.608 19.769,2.311 19.209,2.869 " style="fill:#b8af82"/>
                                            </g>
                                        </g>
                                        <g  transform="matrix(0,-1,-1,0,158.72267,114.08156)">
                                            <g >
                                                <polygon  id="_x30_.1.3.0.0.0.0.19-86-7-1-0" gorn="0.6.0.0.0.0.0.5.0.0.3.0.0" points="19.769,4.608 17.47,4.608 18.028,4.05 19.209,4.05 " style="fill:#80795b"/>
                                            </g>
                                        </g>
                                        <g  transform="matrix(0,-1,-1,0,158.72267,114.08156)">
                                            <g >
                                                <polygon  id="_x30_.1.3.0.0.0.0.20-2-3-4-6" gorn="0.6.0.0.0.0.0.5.0.0.4.0.0" points="17.47,4.608 17.47,2.311 18.028,2.869 18.028,4.05 " style="fill:#5e5b43"/>
                                            </g>
                                        </g>
                                        <g  transform="matrix(0,-1,-1,0,158.72267,114.08156)">
                                            <g >
                                                <polygon  gorn="0.6.0.0.0.0.0.5.0.0.5.0.0" points="18.028,2.869 17.47,2.311 19.769,2.311 19.209,2.869 " style="fill:#9a916c"/>
                                            </g>
                                        </g>
                                    </g>
                                </g>
                            </g>
                            <g  transform="matrix(1.25,0,0,-0.55780522,66.48991,148.95361)">
                                <g >
                                    <polygon  id="_x30_.1.3.0.0.0.0.5-4-9-90-6-1" points="7.566,1.413 6.054,-0.098 2.121,-0.098 0.612,1.413 0.612,5.347 0.612,8.687 0.612,12.619 2.121,14.131 6.054,14.131 7.566,12.619 7.566,8.687 7.566,5.347 " gorn="0.6.0.0.0.0.0.6.0.0" style="fill:#404040"/>
                                </g>
                            </g>
                            <g  transform="matrix(0,1.25,-1.25,0,199.81601,-49.004418)">
                                <g >
                                    <g  id="g22123" gorn="0.6.0.0.0.0.0.7.0.0">
                                        <g  transform="matrix(0,-1,-1,0,0,0)">
                                            <g >
                                                <rect height="2.2980003"  id="_x30_.1.3.0.0.0.0.10-5-0-2-2-0" x="-103.72287" y="-156.41167" gorn="0.6.0.0.0.0.0.7.0.0.0.0.0" width="2.2980003" style="fill:#8d8c8c"/>
                                            </g>
                                        </g>
                                        <g  transform="matrix(0,-1,-1,0,0,0)">
                                            <g >
                                                <rect height="1.1820002"  id="connector4" x="-103.16491" y="-155.85367" gorn="0.6.0.0.0.0.0.7.0.0.1.0.0" width="1.1830001" style="fill:#8c8663"/>
                                            </g>
                                        </g>
                                        <g  transform="matrix(0,-1,-1,0,158.72267,121.19288)">
                                            <g >
                                                <polygon  id="_x30_.1.3.0.0.0.0.18-4-4-6-2-6" gorn="0.6.0.0.0.0.0.7.0.0.2.0.0" points="19.209,4.05 19.769,4.608 19.769,2.311 19.209,2.869 " style="fill:#b8af82"/>
                                            </g>
                                        </g>
                                        <g  transform="matrix(0,-1,-1,0,158.72267,121.19288)">
                                            <g >
                                                <polygon  id="_x30_.1.3.0.0.0.0.19-8-8-0-6-1" gorn="0.6.0.0.0.0.0.7.0.0.3.0.0" points="19.769,4.608 17.47,4.608 18.028,4.05 19.209,4.05 " style="fill:#80795b"/>
                                            </g>
                                        </g>
                                        <g  transform="matrix(0,-1,-1,0,158.72267,121.19288)">
                                            <g >
                                                <polygon  id="_x30_.1.3.0.0.0.0.20-5-9-3-2-0" gorn="0.6.0.0.0.0.0.7.0.0.4.0.0" points="17.47,4.608 17.47,2.311 18.028,2.869 18.028,4.05 " style="fill:#5e5b43"/>
                                            </g>
                                        </g>
                                        <g  transform="matrix(0,-1,-1,0,158.72267,121.19288)">
                                            <g >
                                                <polygon  id="_x30_.1.3.0.0.0.0.21-1-5-2-1-5" gorn="0.6.0.0.0.0.0.7.0.0.5.0.0" points="18.028,2.869 17.47,2.311 19.769,2.311 19.209,2.869 " style="fill:#9a916c"/>
                                            </g>
                                        </g>
                                    </g>
                                </g>
                            </g>
                            <g  transform="matrix(1.25,0,0,-0.55780522,57.602535,148.95361)">
                                <g >
                                    <polygon  id="_x30_.1.3.0.0.0.0.5-7-0-3-9-8" points="0.612,8.687 0.612,12.619 2.121,14.131 6.054,14.131 7.566,12.619 7.566,8.687 7.566,5.347 7.566,1.413 6.054,-0.098 2.121,-0.098 0.612,1.413 0.612,5.347 " gorn="0.6.0.0.0.0.0.8.0.0" style="fill:#404040"/>
                                </g>
                            </g>
                            <g  transform="matrix(0,1.25,-1.25,0,199.81601,-49.004418)">
                                <g >
                                    <g  id="g22115" gorn="0.6.0.0.0.0.0.9.0.0">
                                        <g  transform="matrix(0,-1,-1,0,0,0)">
                                            <g >
                                                <rect height="2.2980003"  id="_x30_.1.3.0.0.0.0.10-7-695-5-6-4" x="-110.83277" y="-156.41167" gorn="0.6.0.0.0.0.0.9.0.0.0.0.0" width="2.2980003" style="fill:#8d8c8c"/>
                                            </g>
                                        </g>
                                        <g  transform="matrix(0,-1,-1,0,0,0)">
                                            <g >
                                                <rect height="1.1820002"  id="connector2" x="-110.27481" y="-155.85367" gorn="0.6.0.0.0.0.0.9.0.0.1.0.0" width="1.1830001" style="fill:#8c8663"/>
                                            </g>
                                        </g>
                                        <g  transform="matrix(0,-1,-1,0,158.72267,128.30279)">
                                            <g >
                                                <polygon  id="_x30_.1.3.0.0.0.0.18-6-02-5-3-8" gorn="0.6.0.0.0.0.0.9.0.0.2.0.0" points="19.769,4.608 19.769,2.311 19.209,2.869 19.209,4.05 " style="fill:#b8af82"/>
                                            </g>
                                        </g>
                                        <g  transform="matrix(0,-1,-1,0,158.72267,128.30279)">
                                            <g >
                                                <polygon  id="_x30_.1.3.0.0.0.0.19-86-7-1-4-3" gorn="0.6.0.0.0.0.0.9.0.0.3.0.0" points="17.47,4.608 18.028,4.05 19.209,4.05 19.769,4.608 " style="fill:#80795b"/>
                                            </g>
                                        </g>
                                        <g  transform="matrix(0,-1,-1,0,158.72267,128.30279)">
                                            <g >
                                                <polygon  id="_x30_.1.3.0.0.0.0.20-2-3-4-0-7" gorn="0.6.0.0.0.0.0.9.0.0.4.0.0" points="17.47,2.311 18.028,2.869 18.028,4.05 17.47,4.608 " style="fill:#5e5b43"/>
                                            </g>
                                        </g>
                                        <g  transform="matrix(0,-1,-1,0,158.72267,128.30279)">
                                            <g >
                                                <polygon  id="_x30_.1.3.0.0.0.0.21-17-6-9-3-1" gorn="0.6.0.0.0.0.0.9.0.0.5.0.0" points="17.47,2.311 19.769,2.311 19.209,2.869 18.028,2.869 " style="fill:#9a916c"/>
                                            </g>
                                        </g>
                                    </g>
                                </g>
                            </g>
                            <g  transform="matrix(1.25,0,0,-0.55780522,48.713385,148.95361)">
                                <g >
                                    <polygon  id="_x30_.1.3.0.0.0.0.5-4-9-90-6-5-0" points="0.612,8.687 0.612,12.619 2.121,14.131 6.054,14.131 7.566,12.619 7.566,8.687 7.566,5.347 7.566,1.413 6.054,-0.098 2.121,-0.098 0.612,1.413 0.612,5.347 " gorn="0.6.0.0.0.0.0.10.0.0" style="fill:#404040"/>
                                </g>
                            </g>
                            <g  transform="matrix(0,1.25,-1.25,0,199.81601,-49.004418)">
                                <g >
                                    <g  id="g22107" gorn="0.6.0.0.0.0.0.11.0.0">
                                        <g  transform="matrix(0,-1,-1,0,0,0)">
                                            <g >
                                                <rect height="2.2980003"  id="_x30_.1.3.0.0.0.0.10-5-0-2-2-8-6" x="-117.9441" y="-156.41167" gorn="0.6.0.0.0.0.0.11.0.0.0.0.0" width="2.2980003" style="fill:#8d8c8c"/>
                                            </g>
                                        </g>
                                        <g  transform="matrix(0,-1,-1,0,0,0)">
                                            <g >
                                                <rect height="1.1820002"  id="connector3" x="-117.38614" y="-155.85367" gorn="0.6.0.0.0.0.0.11.0.0.1.0.0" width="1.1830001" style="fill:#8c8663"/>
                                            </g>
                                        </g>
                                        <g  transform="matrix(0,-1,-1,0,158.72267,135.41411)">
                                            <g >
                                                <polygon  id="_x30_.1.3.0.0.0.0.18-4-4-6-2-1-5" gorn="0.6.0.0.0.0.0.11.0.0.2.0.0" points="19.769,4.608 19.769,2.311 19.209,2.869 19.209,4.05 " style="fill:#b8af82"/>
                                            </g>
                                        </g>
                                        <g  transform="matrix(0,-1,-1,0,158.72267,135.41411)">
                                            <g >
                                                <polygon  id="_x30_.1.3.0.0.0.0.19-8-8-0-6-2-6" gorn="0.6.0.0.0.0.0.11.0.0.3.0.0" points="17.47,4.608 18.028,4.05 19.209,4.05 19.769,4.608 " style="fill:#80795b"/>
                                            </g>
                                        </g>
                                        <g  transform="matrix(0,-1,-1,0,158.72267,135.41411)">
                                            <g >
                                                <polygon  id="_x30_.1.3.0.0.0.0.20-5-9-3-2-7-3" gorn="0.6.0.0.0.0.0.11.0.0.4.0.0" points="17.47,2.311 18.028,2.869 18.028,4.05 17.47,4.608 " style="fill:#5e5b43"/>
                                            </g>
                                        </g>
                                        <g  transform="matrix(0,-1,-1,0,158.72267,135.41411)">
                                            <g >
                                                <polygon  id="_x30_.1.3.0.0.0.0.21-1-5-2-1-3-8" gorn="0.6.0.0.0.0.0.11.0.0.5.0.0" points="17.47,2.311 19.769,2.311 19.209,2.869 18.028,2.869 " style="fill:#9a916c"/>
                                            </g>
                                        </g>
                                    </g>
                                </g>
                            </g>
                            <g  transform="matrix(1.25,0,0,-0.55780522,110.81043,148.95361)">
                                <g >
                                    <polygon  id="polygon13139" gorn="0.6.0.0.0.0.0.12.0.0" points="6.054,-0.098 2.121,-0.098 0.612,1.413 0.612,5.347 0.612,8.687 0.612,12.619 2.121,14.131 6.054,14.131 7.566,12.619 7.566,8.687 7.566,5.347 7.566,1.413 " style="fill:#404040"/>
                                </g>
                            </g>
                            <g  transform="matrix(0,1.25,-1.25,0,217.46907,-49.004418)">
                                <g >
                                    <g  id="g13141" gorn="0.6.0.0.0.0.0.13.0.0">
                                        <g  transform="matrix(0,-1,-1,0,0,0)">
                                            <g >
                                                <rect height="2.2980003"  id="rect13143" x="-82.388908" y="-156.41167" gorn="0.6.0.0.0.0.0.13.0.0.0.0.0" style="fill:#8d8c8c" width="2.2980003"/>
                                            </g>
                                        </g>
                                        <g  transform="matrix(0,-1,-1,0,0,0)">
                                            <g >
                                                <rect height="1.1820002"  id="connector1" x="-81.830948" y="-155.85367" gorn="0.6.0.0.0.0.0.13.0.0.1.0.0" style="fill:#8c8663" width="1.1830001"/>
                                            </g>
                                        </g>
                                        <g  transform="matrix(0,-1,-1,0,158.72267,99.858915)">
                                            <g >
                                                <polygon  id="polygon13147" points="19.769,4.608 19.769,2.311 19.209,2.869 19.209,4.05 " gorn="0.6.0.0.0.0.0.13.0.0.2.0.0" style="fill:#b8af82"/>
                                            </g>
                                        </g>
                                        <g  transform="matrix(0,-1,-1,0,158.72267,99.858915)">
                                            <g >
                                                <polygon  id="polygon13149" points="17.47,4.608 18.028,4.05 19.209,4.05 19.769,4.608 " gorn="0.6.0.0.0.0.0.13.0.0.3.0.0" style="fill:#80795b"/>
                                            </g>
                                        </g>
                                        <g  transform="matrix(0,-1,-1,0,158.72267,99.858915)">
                                            <g >
                                                <polygon  id="polygon13151" points="17.47,2.311 18.028,2.869 18.028,4.05 17.47,4.608 " gorn="0.6.0.0.0.0.0.13.0.0.4.0.0" style="fill:#5e5b43"/>
                                            </g>
                                        </g>
                                        <g  transform="matrix(0,-1,-1,0,158.72267,99.858915)">
                                            <g >
                                                <polygon  id="polygon13153" points="17.47,2.311 19.769,2.311 19.209,2.869 18.028,2.869 " gorn="0.6.0.0.0.0.0.13.0.0.5.0.0" style="fill:#9a916c"/>
                                            </g>
                                        </g>
                                    </g>
                                </g>
                            </g>
                            <g  transform="matrix(1.25,0,0,-0.55780522,101.92129,148.95361)">
                                <g >
                                    <polygon  id="polygon13155" gorn="0.6.0.0.0.0.0.14.0.0" points="0.612,5.347 0.612,8.687 0.612,12.619 2.121,14.131 6.054,14.131 7.566,12.619 7.566,8.687 7.566,5.347 7.566,1.413 6.054,-0.098 2.121,-0.098 0.612,1.413 " style="fill:#404040"/>
                                </g>
                            </g>
                            <g  transform="matrix(0,1.25,-1.25,0,217.46907,-49.004418)">
                                <g >
                                    <g  id="g13157" gorn="0.6.0.0.0.0.0.15.0.0">
                                        <g  transform="matrix(0,-1,-1,0,0,0)">
                                            <g >
                                                <rect height="2.2980003"  id="rect13159" x="-89.500214" y="-156.41167" gorn="0.6.0.0.0.0.0.15.0.0.0.0.0" style="fill:#8d8c8c" width="2.2980003"/>
                                            </g>
                                        </g>
                                        <g  transform="matrix(0,-1,-1,0,0,0)">
                                            <g >
                                                <rect height="1.1820002"  id="connector7" x="-88.942253" y="-155.85367" gorn="0.6.0.0.0.0.0.15.0.0.1.0.0" style="fill:#8c8663" width="1.1830001"/>
                                            </g>
                                        </g>
                                        <g  transform="matrix(0,-1,-1,0,158.72267,106.97024)">
                                            <g >
                                                <polygon  id="polygon13163" points="19.209,4.05 19.769,4.608 19.769,2.311 19.209,2.869 " gorn="0.6.0.0.0.0.0.15.0.0.2.0.0" style="fill:#b8af82"/>
                                            </g>
                                        </g>
                                        <g  transform="matrix(0,-1,-1,0,158.72267,106.97024)">
                                            <g >
                                                <polygon  id="polygon13165" points="19.769,4.608 17.47,4.608 18.028,4.05 19.209,4.05 " gorn="0.6.0.0.0.0.0.15.0.0.3.0.0" style="fill:#80795b"/>
                                            </g>
                                        </g>
                                        <g  transform="matrix(0,-1,-1,0,158.72267,106.97024)">
                                            <g >
                                                <polygon  id="polygon13167" points="17.47,4.608 17.47,2.311 18.028,2.869 18.028,4.05 " gorn="0.6.0.0.0.0.0.15.0.0.4.0.0" style="fill:#5e5b43"/>
                                            </g>
                                        </g>
                                        <g  transform="matrix(0,-1,-1,0,158.72267,106.97024)">
                                            <g >
                                                <polygon  id="polygon13169" points="18.028,2.869 17.47,2.311 19.769,2.311 19.209,2.869 " gorn="0.6.0.0.0.0.0.15.0.0.5.0.0" style="fill:#9a916c"/>
                                            </g>
                                        </g>
                                    </g>
                                </g>
                            </g>
                        </g>
                    </g>
                </g>
                <g  transform="translate(-3.249763,1.0001028)">
                    <g >
                        <g  id="text13237" fill="#000000" font-size="5" stroke="none" fill-opacity="1" stroke-opacity="1" gorn="0.6.0.0.1.0.0" style="font-style:normal;font-weight:normal;line-height:125%;font-family:Droid Sans;letter-spacing:0px;word-spacing:0px;stroke-linecap:butt;stroke-linejoin:miter;" stroke-width="1">
                            <path  id="path13242" d="m 117.78231,144.10037 q -0.52734,0 -0.8313,0.28198 -0.30029,0.28199 -0.30029,0.77637 0,0.49439 0.30029,0.77637 0.30396,0.28198 0.8313,0.28198 0.52735,0 0.8313,-0.28198 0.30396,-0.28565 0.30396,-0.77637 0,-0.49438 -0.30396,-0.77637 -0.30029,-0.28198 -0.8313,-0.28198 z m -0.73974,-0.31494 q -0.47608,-0.11719 -0.74341,-0.44312 -0.26368,-0.32592 -0.26368,-0.79467 0,-0.65552 0.46509,-1.03638 0.46875,-0.38086 1.28174,-0.38086 0.81665,0 1.28174,0.38086 0.46509,0.38086 0.46509,1.03638 0,0.46875 -0.26734,0.79467 -0.26367,0.32593 -0.73608,0.44312 0.53467,0.12451 0.8313,0.48706 0.30029,0.36255 0.30029,0.88623 0,0.79468 -0.48706,1.21948 -0.4834,0.42481 -1.38794,0.42481 -0.90454,0 -1.3916,-0.42481 -0.4834,-0.4248 -0.4834,-1.21948 0,-0.52368 0.30029,-0.88623 0.3003,-0.36255 0.83497,-0.48706 z m -0.271,-1.16821 q 0,0.4248 0.26367,0.66284 0.26734,0.23804 0.74707,0.23804 0.47608,0 0.74341,-0.23804 0.271,-0.23804 0.271,-0.66284 0,-0.42481 -0.271,-0.66285 -0.26733,-0.23803 -0.74341,-0.23803 -0.47973,0 -0.74707,0.23803 -0.26367,0.23804 -0.26367,0.66285 z" gorn="0.6.0.0.1.0.0.0" style="font-size:7.50000334px;fill:#ffffff"/>
                        </g>
                    </g>
                </g>
                <g  transform="translate(-2.0000008,1.1807678)">
                    <g >
                        <g  id="text13244" fill="#000000" font-size="5" stroke="none" fill-opacity="1" stroke-opacity="1" gorn="0.6.0.0.2.0.0" style="font-style:normal;font-weight:normal;line-height:125%;font-family:Droid Sans;letter-spacing:0px;word-spacing:0px;stroke-linecap:butt;stroke-linejoin:miter;" stroke-width="1">
                            <path  id="path13249" d="m 36.682404,145.89725 1.208497,0 0,-4.17115 -1.314698,0.26367 0,-0.67382 1.307373,-0.26368 0.739747,0 0,4.84498 1.208496,0 0,0.62256 -3.149415,0 0,-0.62256 z" gorn="0.6.0.0.2.0.0.0" style="font-size:7.50000334px;fill:#ffffff"/>
                        </g>
                    </g>
                </g>
            </g>
        </g>
    </g>
    <g  id="text18607" fill="#000000" font-size="5" stroke="none" fill-opacity="1" stroke-opacity="1" gorn="0.7" style="font-style:normal;font-weight:normal;line-height:125%;font-family:Droid Sans;letter-spacing:0px;word-spacing:0px;stroke-linecap:butt;stroke-linejoin:miter;" stroke-width="1">
        <path  id="path18612" d="m 37.291363,3.3794109 0.830078,0 2.020265,3.811647 0,-3.811647 0.598145,0 0,4.5562762 -0.830079,0 -2.020264,-3.811647 0,3.811647 -0.598145,0 0,-4.5562762 z" gorn="0.7.0" style="font-size:6.25000238px;fill:#ffffff"/>
        <path  id="path18614" d="m 43.266707,4.9113939 q -0.45166,0 -0.714111,0.3540041 -0.262452,0.3509522 -0.262452,0.9643558 0,0.6134036 0.2594,0.9674076 0.262451,0.3509523 0.717163,0.3509523 0.448609,0 0.71106,-0.3540041 0.262451,-0.354004 0.262451,-0.9643558 0,-0.6073 -0.262451,-0.9613041 -0.262451,-0.3570558 -0.71106,-0.3570558 z m 0,-0.4760744 q 0.732422,0 1.150513,0.4760744 0.418091,0.4760744 0.418091,1.3183599 0,0.8392337 -0.418091,1.3183599 -0.418091,0.4760744 -1.150513,0.4760744 -0.735474,0 -1.153565,-0.4760744 -0.415039,-0.4791262 -0.415039,-1.3183599 0,-0.8422855 0.415039,-1.3183599 0.418091,-0.4760744 1.153565,-0.4760744 z" gorn="0.7.1" style="font-size:6.25000238px;fill:#ffffff"/>
        <path  id="path18616" d="m 45.741684,3.1871501 0.564576,0 0,2.8045665 1.675415,-1.4739996 0.717164,0 -1.812745,1.5991217 1.889039,1.8188484 -0.732423,0 -1.73645,-1.6693122 0,1.6693122 -0.564576,0 0,-4.748537 z" gorn="0.7.2" style="font-size:6.25000238px;fill:#ffffff"/>
        <path  id="path18618" d="m 49.388536,4.517717 0.561523,0 0,3.4179701 -0.561523,0 0,-3.4179701 z m 0,-1.3305669 0.561523,0 0,0.7110598 -0.561523,0 0,-0.7110598 z" gorn="0.7.3" style="font-size:6.25000238px;fill:#ffffff"/>
        <path  id="path18620" d="m 52.67528,6.2175468 q -0.680542,0 -0.942993,0.1556397 -0.262451,0.1556397 -0.262451,0.531006 0,0.2990724 0.195312,0.4760744 0.198365,0.1739503 0.53711,0.1739503 0.466919,0 0.747681,-0.32959 0.283813,-0.3326417 0.283813,-0.8819583 l 0,-0.1251221 -0.558472,0 z m 1.119996,-0.2319337 0,1.950074 -0.561524,0 0,-0.5187991 q -0.19226,0.3112795 -0.479126,0.4608156 -0.286865,0.1464845 -0.701904,0.1464845 -0.524903,0 -0.836182,-0.2929689 -0.308228,-0.2960206 -0.308228,-0.7904056 0,-0.5767824 0.384522,-0.8697513 0.387573,-0.2929688 1.153565,-0.2929688 l 0.787353,0 0,-0.054932 q 0,-0.3875734 -0.256347,-0.5981448 -0.253296,-0.2136231 -0.714112,-0.2136231 -0.292969,0 -0.570679,0.07019 -0.27771,0.07019 -0.534058,0.2105713 l 0,-0.518799 q 0.308228,-0.1190186 0.598145,-0.177002 0.289917,-0.061035 0.564575,-0.061035 0.741578,0 1.107789,0.3845216 0.366211,0.3845217 0.366211,1.165772 z" gorn="0.7.4" style="font-size:6.25000238px;fill:#ffffff"/>
        <path  id="path18622" d="m 55.040394,3.3794109 2.420045,0 0,0.518799 -1.85547,0 0,1.1169438 q 0.134278,-0.045776 0.268555,-0.067139 0.134278,-0.024414 0.268555,-0.024414 0.76294,0 1.208497,0.4180909 0.445556,0.418091 0.445556,1.1322026 0,0.7354739 -0.457763,1.1444096 -0.457764,0.405884 -1.290894,0.405884 -0.286866,0 -0.585938,-0.048828 -0.296021,-0.048828 -0.613404,-0.1464844 l 0,-0.6195071 q 0.274659,0.1495362 0.567627,0.2227784 0.292969,0.073242 0.619508,0.073242 0.527954,0 0.836181,-0.27771 0.308228,-0.2777101 0.308228,-0.7537845 0,-0.4760744 -0.308228,-0.7537845 -0.308227,-0.27771 -0.836181,-0.27771 -0.247193,0 -0.494385,0.054932 -0.244141,0.054932 -0.500489,0.1708985 l 0,-2.2888192 z" gorn="0.7.5" style="font-size:6.25000238px;fill:#ffffff"/>
        <path  id="path18624" d="m 59.120594,7.416888 1.007081,0 0,-3.4759534 -1.095582,0.2197266 0,-0.5615236 1.089478,-0.2197267 0.616456,0 0,4.0374771 1.00708,0 0,0.5187991 -2.624513,0 0,-0.5187991 z" gorn="0.7.6" style="font-size:6.25000238px;fill:#ffffff"/>
        <path  id="path18626" d="m 63.100088,7.416888 1.007081,0 0,-3.4759534 -1.095582,0.2197266 0,-0.5615236 1.089478,-0.2197267 0.616456,0 0,4.0374771 1.00708,0 0,0.5187991 -2.624513,0 0,-0.5187991 z" gorn="0.7.7" style="font-size:6.25000238px;fill:#ffffff"/>
        <path  id="path18628" d="m 68.291131,3.7852949 q -0.476075,0 -0.717164,0.4699708 -0.238037,0.4669192 -0.238037,1.4068609 0,0.93689 0.238037,1.4068609 0.241089,0.4669191 0.717164,0.4669191 0.479126,0 0.717163,-0.4669191 0.241089,-0.4699709 0.241089,-1.4068609 0,-0.9399417 -0.241089,-1.4068609 -0.238037,-0.4699708 -0.717163,-0.4699708 z m 0,-0.4882815 q 0.765991,0 1.168824,0.6073001 0.405883,0.6042482 0.405883,1.7578131 0,1.1505132 -0.405883,1.7578132 -0.402833,0.6042483 -1.168824,0.6042483 -0.765992,0 -1.171876,-0.6042483 -0.402832,-0.6073 -0.402832,-1.7578132 0,-1.1535649 0.402832,-1.7578131 0.405884,-0.6073001 1.171876,-0.6073001 z" gorn="0.7.8" style="font-size:6.25000238px;fill:#ffffff"/>
        <path  id="path18630" d="m 74.876827,3.3794109 0.616456,0 0,4.0374771 2.218629,0 0,0.5187991 -2.835085,0 0,-4.5562762 z" gorn="0.7.9" style="font-size:6.25000238px;fill:#ffffff"/>
        <path  id="path18632" d="m 81.767698,3.7303632 0,0.6500247 Q 81.456419,4.0904708 81.102414,3.9470381 80.751462,3.8036054 80.354734,3.8036054 q -0.781251,0 -1.19629,0.4791262 -0.415039,0.4760744 -0.415039,1.379395 0,0.9002689 0.415039,1.3793951 0.415039,0.4760744 1.19629,0.4760744 0.396728,0 0.74768,-0.1434327 0.354005,-0.1434327 0.665284,-0.4333498 l 0,0.6439212 q -0.323487,0.2197266 -0.686646,0.32959 -0.360107,0.1098633 -0.76294,0.1098633 -1.034546,0 -1.629639,-0.6317141 -0.595093,-0.6347659 -0.595093,-1.7303474 0,-1.0986332 0.595093,-1.7303473 0.595093,-0.6347659 1.629639,-0.6347659 0.408936,0 0.769044,0.1098633 0.363159,0.1068116 0.680542,0.3234865 z" gorn="0.7.10" style="font-size:6.25000238px;fill:#ffffff"/>
        <path  id="path18634" d="m 83.342404,3.8860029 0,3.5430922 0.744629,0 q 0.942994,0 1.379395,-0.4272463 0.439453,-0.4272462 0.439453,-1.3488774 0,-0.9155277 -0.439453,-1.3397222 -0.436401,-0.4272463 -1.379395,-0.4272463 l -0.744629,0 z m -0.616455,-0.506592 1.26648,0 q 1.324463,0 1.94397,0.5523684 0.619507,0.5493166 0.619507,1.7211921 0,1.1779789 -0.622559,1.7303473 -0.622559,0.5523684 -1.940918,0.5523684 l -1.26648,0 0,-4.5562762 z" gorn="0.7.11" style="font-size:6.25000238px;fill:#ffffff"/>
        <path  id="path18636" d="m 91.515015,3.3794109 0.918579,0 1.162721,3.1005871 1.168823,-3.1005871 0.91858,0 0,4.5562762 -0.601197,0 0,-4.0008561 -1.174927,3.1250012 -0.619507,0 -1.174927,-3.1250012 0,4.0008561 -0.598145,0 0,-4.5562762 z" gorn="0.7.12" style="font-size:6.25000238px;fill:#ffffff"/>
        <path  id="path18638" d="m 98.210576,4.9113939 q -0.45166,0 -0.714112,0.3540041 -0.262451,0.3509522 -0.262451,0.9643558 0,0.6134036 0.259399,0.9674076 0.262452,0.3509523 0.717164,0.3509523 0.448608,0 0.71106,-0.3540041 0.262451,-0.354004 0.262451,-0.9643558 0,-0.6073 -0.262451,-0.9613041 -0.262452,-0.3570558 -0.71106,-0.3570558 z m 0,-0.4760744 q 0.732422,0 1.150513,0.4760744 0.418091,0.4760744 0.418091,1.3183599 0,0.8392337 -0.418091,1.3183599 -0.418091,0.4760744 -1.150513,0.4760744 -0.735474,0 -1.153565,-0.4760744 -0.415039,-0.4791262 -0.415039,-1.3183599 0,-0.8422855 0.415039,-1.3183599 0.418091,-0.4760744 1.153565,-0.4760744 z" gorn="0.7.13" style="font-size:6.25000238px;fill:#ffffff"/>
        <path  id="path18640" d="m 102.95606,5.036516 0,-1.8493659 0.56152,0 0,4.748537 -0.56152,0 0,-0.5126955 q -0.177,0.3051759 -0.44861,0.454712 -0.26855,0.1464845 -0.64697,0.1464845 -0.61951,0 -1.01013,-0.494385 -0.38758,-0.4943849 -0.38758,-1.3000493 0,-0.8056644 0.38758,-1.3000493 0.39062,-0.494385 1.01013,-0.494385 0.37842,0 0.64697,0.1495362 0.27161,0.1464844 0.44861,0.4516603 z m -1.91345,1.1932378 q 0,0.6195071 0.25329,0.9735111 0.25635,0.3509523 0.70191,0.3509523 0.44555,0 0.7019,-0.3509523 0.25635,-0.354004 0.25635,-0.9735111 0,-0.6195071 -0.25635,-0.9704594 -0.25635,-0.354004 -0.7019,-0.354004 -0.44556,0 -0.70191,0.354004 -0.25329,0.3509523 -0.25329,0.9704594 z" gorn="0.7.14" style="font-size:6.25000238px;fill:#ffffff"/>
        <path  id="path18642" d="m 104.61621,6.5868096 0,-2.0690926 0.56153,0 0,2.0477303 q 0,0.4852297 0.18921,0.7293704 0.18921,0.2410889 0.56762,0.2410889 0.45472,0 0.71717,-0.2899171 0.2655,-0.2899171 0.2655,-0.7904055 l 0,-1.937867 0.56152,0 0,3.4179701 -0.56152,0 0,-0.5249026 q -0.20447,0.3112794 -0.47607,0.4638674 -0.26856,0.1495362 -0.62561,0.1495362 -0.58899,0 -0.89417,-0.3662111 -0.30518,-0.3662111 -0.30518,-1.0711674 z m 1.41297,-2.1514901 0,0 z" gorn="0.7.15" style="font-size:6.25000238px;fill:#ffffff"/>
        <path  id="path18644" d="m 108.64148,3.1871501 0.56153,0 0,4.748537 -0.56153,0 0,-4.748537 z" gorn="0.7.16" style="font-size:6.25000238px;fill:#ffffff"/>
        <path  id="path18646" d="m 113.29847,6.0863211 0,0.2746583 -2.58178,0 q 0.0366,0.5798342 0.3479,0.8850101 0.31433,0.3021242 0.8728,0.3021242 0.32349,0 0.62561,-0.079346 0.30518,-0.079346 0.60425,-0.2380372 l 0,0.5310061 q -0.30213,0.1281739 -0.61951,0.1953126 -0.31738,0.067139 -0.64392,0.067139 -0.81787,0 -1.297,-0.4760744 -0.47607,-0.4760744 -0.47607,-1.2878423 0,-0.8392337 0.45166,-1.3305669 0.45471,-0.494385 1.22375,-0.494385 0.6897,0 1.08948,0.4455568 0.40283,0.4425051 0.40283,1.2054448 z m -0.56152,-0.164795 q -0.006,-0.4608156 -0.2594,-0.7354739 -0.25024,-0.2746583 -0.66528,-0.2746583 -0.46997,0 -0.75379,0.2655031 -0.28076,0.265503 -0.32348,0.7476809 l 2.00195,-0.00305 z" gorn="0.7.17" style="font-size:6.25000238px;fill:#ffffff"/>
    </g>
</svg>
